<svg xmlns="http://www.w3.org/2000/svg" width="800" height="500">
<rect width="800" height="500" fill="white"/>
<text x="400" y="30" text-anchor="middle" font-size="20">Temps moyens</text>
<line x1="60" y1="440" x2="740" y2="440" stroke="black"/>
<line x1="60" y1="60" x2="60" y2="440" stroke="black"/>
<polyline fill="none" stroke="blue" stroke-width="2" points="60.0,425.992237737747 135.55555555555554,408.2719775417439 211.11111111111111,380.10020791306823 286.66666666666663,344.95479247176627 362.22222222222223,327.7309838019313 437.77777777777777,312.4919469290862 513.3333333333333,302.4202385093523 588.8888888888889,277.53187861629476 664.4444444444445,263.94329378364466 740.0,219.10444371561246"/>
<polyline fill="none" stroke="red" stroke-width="2" points="60.0,417.9327547114771 135.55555555555554,393.08495503254846 211.11111111111111,350.8771614922697 286.66666666666663,313.20808783100955 362.22222222222223,278.1138504186308 437.77777777777777,258.6534079507783 513.3333333333333,222.78932644231375 588.8888888888889,161.25104553802174 664.4444444444445,71.62485473255958 740.0,60.0"/>
<text x="600" y="80" fill="blue">GS étudiants</text>
<text x="600" y="100" fill="red">GS parcours</text>
<text x="60.0" y="460" text-anchor="middle" font-size="12">200</text>
<text x="135.55555555555554" y="460" text-anchor="middle" font-size="12">400</text>
<text x="211.11111111111111" y="460" text-anchor="middle" font-size="12">600</text>
<text x="286.66666666666663" y="460" text-anchor="middle" font-size="12">800</text>
<text x="362.22222222222223" y="460" text-anchor="middle" font-size="12">1000</text>
<text x="437.77777777777777" y="460" text-anchor="middle" font-size="12">1200</text>
<text x="513.3333333333333" y="460" text-anchor="middle" font-size="12">1400</text>
<text x="588.8888888888889" y="460" text-anchor="middle" font-size="12">1600</text>
<text x="664.4444444444445" y="460" text-anchor="middle" font-size="12">1800</text>
<text x="740.0" y="460" text-anchor="middle" font-size="12">2000</text>
</svg>
