<svg xmlns="http://www.w3.org/2000/svg" width="800" height="500">
<rect width="800" height="500" fill="white"/>
<text x="400" y="30" text-anchor="middle" font-size="20">Iterations moyennes</text>
<line x1="60" y1="440" x2="740" y2="440" stroke="black"/>
<line x1="60" y1="60" x2="60" y2="440" stroke="black"/>
<polyline fill="none" stroke="blue" stroke-width="2" points="60.0,430.7784419933953 135.55555555555554,423.096180292442 211.11111111111111,415.11174726127996 286.66666666666663,406.77537350434545 362.22222222222223,400.5648639293499 437.77777777777777,392.1325063381138 513.3333333333333,385.7584687491229 588.8888888888889,377.31900124423487 664.4444444444445,369.65095937058555 740.0,361.71274077816133"/>
<polyline fill="none" stroke="red" stroke-width="2" points="60.0,411.4963561692534 135.55555555555554,374.7487674590478 211.11111111111111,336.3267940838034 286.66666666666663,305.7043959847698 362.22222222222223,262.5614399446175 437.77777777777777,221.14263796506785 513.3333333333333,175.04906775934813 588.8888888888889,149.34672990747754 664.4444444444445,99.15429448139724 740.0,60.0"/>
<text x="600" y="80" fill="blue">GS etudiants</text>
<text x="600" y="100" fill="red">GS parcours</text>
<text x="60.0" y="460" text-anchor="middle" font-size="12">200</text>
<text x="135.55555555555554" y="460" text-anchor="middle" font-size="12">400</text>
<text x="211.11111111111111" y="460" text-anchor="middle" font-size="12">600</text>
<text x="286.66666666666663" y="460" text-anchor="middle" font-size="12">800</text>
<text x="362.22222222222223" y="460" text-anchor="middle" font-size="12">1000</text>
<text x="437.77777777777777" y="460" text-anchor="middle" font-size="12">1200</text>
<text x="513.3333333333333" y="460" text-anchor="middle" font-size="12">1400</text>
<text x="588.8888888888889" y="460" text-anchor="middle" font-size="12">1600</text>
<text x="664.4444444444445" y="460" text-anchor="middle" font-size="12">1800</text>
<text x="740.0" y="460" text-anchor="middle" font-size="12">2000</text>
</svg>
