<svg xmlns="http://www.w3.org/2000/svg" width="800" height="500">
<rect width="800" height="500" fill="white"/>
<text x="400" y="30" text-anchor="middle" font-size="20">Itérations moyennes</text>
<line x1="60" y1="440" x2="740" y2="440" stroke="black"/>
<line x1="60" y1="60" x2="60" y2="440" stroke="black"/>
<polyline fill="none" stroke="blue" stroke-width="2" points="60.0,431.10356288464 135.55555555555554,422.99128910316114 211.11111111111111,415.85054511587134 286.66666666666663,408.57795065651305 362.22222222222223,401.58293613835167 437.77777777777777,393.370039628189 513.3333333333333,386.4444200953268 588.8888888888889,378.80403221388264 664.4444444444445,371.18446282802824 740.0,365.06382512463705"/>
<polyline fill="none" stroke="red" stroke-width="2" points="60.0,409.8721671323435 135.55555555555554,373.609817564236 211.11111111111111,339.3842108146606 286.66666666666663,308.4618053653281 362.22222222222223,252.935407878157 437.77777777777777,236.25979291075438 513.3333333333333,193.8004711554265 588.8888888888889,157.75671579101152 664.4444444444445,115.8803119121971 740.0,60.0"/>
<text x="600" y="80" fill="blue">GS étudiants</text>
<text x="600" y="100" fill="red">GS parcours</text>
<text x="60.0" y="460" text-anchor="middle" font-size="12">200</text>
<text x="135.55555555555554" y="460" text-anchor="middle" font-size="12">400</text>
<text x="211.11111111111111" y="460" text-anchor="middle" font-size="12">600</text>
<text x="286.66666666666663" y="460" text-anchor="middle" font-size="12">800</text>
<text x="362.22222222222223" y="460" text-anchor="middle" font-size="12">1000</text>
<text x="437.77777777777777" y="460" text-anchor="middle" font-size="12">1200</text>
<text x="513.3333333333333" y="460" text-anchor="middle" font-size="12">1400</text>
<text x="588.8888888888889" y="460" text-anchor="middle" font-size="12">1600</text>
<text x="664.4444444444445" y="460" text-anchor="middle" font-size="12">1800</text>
<text x="740.0" y="460" text-anchor="middle" font-size="12">2000</text>
</svg>
